<svg width="400" height="400" viewBox="0 0 400 400" fill="none" xmlns="http://www.w3.org/2000/svg"><rect width="400" height="400" fill="#194AF4"/><path fill-rule="evenodd" clip-rule="evenodd" d="M253 237.624C253 264.414 231.651 283.86 197.752 283.86C175.815 283.86 158.743 273.02 146 260.619L157.342 248.09C167.947 258.193 180.434 268.017 197.528 268.017C216.524 268.017 237.007 257.37 237.007 238.234C237.007 222.359 224.371 212 197.848 203.821C167.616 194.564 152.265 182.034 152.265 158.473C152.265 135.146 172.01 116 200.136 116C221.143 116 234.303 124.959 247.088 136.408L235.949 148.777C224.724 138.835 214.034 132.1 200.916 132.1C184.646 132.1 168.621 142.587 168.621 157.692C168.621 171.387 176.478 180.099 204.23 188.598C229.652 196.434 253 208.568 253 237.624Z" fill="white"/></svg>