<svg viewBox="0 0 21 26" fill="none" xmlns="http://www.w3.org/2000/svg">
<path fill-rule="evenodd" clip-rule="evenodd" d="M20.1763 7.64914C20.188 8.91545 19.7763 10.1506 19.0042 11.1652C18.1943 12.6223 15.5695 13.7895 15.5695 13.7895C14.5777 14.184 13.5151 14.3783 12.4451 14.3608H6.04424V16.9487H19.991V18.9333H6.04424V24.0787L8.89494 24.319V25.8123H1.11199V24.319L3.96269 24.0787V18.8513L0.977661 18.8679V16.9663L3.96269 16.9204V2.58411L1.11199 2.34385V0.832941H11.6929C13.9319 0.689112 16.1529 1.30761 17.9814 2.58411C19.4845 3.8392 20.2977 5.71578 20.1763 7.64914ZM16.4859 3.9032C15.0964 2.92269 13.3993 2.45443 11.6929 2.58078H6.04423V12.6073H11.4481C13.7453 12.6073 15.4245 12.1551 16.4859 11.2507C17.549 10.3428 18.1346 9.01027 18.0779 7.62822C18.1589 6.21233 17.5718 4.83857 16.4859 3.9032Z" fill="white" fill-opacity="0.4"/>
</svg>
